<svg viewBox="0 0 1200 820" xmlns="http://www.w3.org/2000/svg" font-family="'Segoe UI',Arial,sans-serif">
  <defs>
    <marker id="ah" markerWidth="8" markerHeight="6" refX="7" refY="3" orient="auto"><polygon points="0 0,8 3,0 6" fill="#475569"/></marker>
    <marker id="ah-purple" markerWidth="8" markerHeight="6" refX="7" refY="3" orient="auto"><polygon points="0 0,8 3,0 6" fill="#7C3AED"/></marker>
    <marker id="ah-blue" markerWidth="8" markerHeight="6" refX="7" refY="3" orient="auto"><polygon points="0 0,8 3,0 6" fill="#2563EB"/></marker>
    <marker id="ah-cyan" markerWidth="8" markerHeight="6" refX="7" refY="3" orient="auto"><polygon points="0 0,8 3,0 6" fill="#0284C7"/></marker>
    <marker id="ah-green" markerWidth="8" markerHeight="6" refX="7" refY="3" orient="auto"><polygon points="0 0,8 3,0 6" fill="#059669"/></marker>
    <marker id="ah-amber" markerWidth="8" markerHeight="6" refX="7" refY="3" orient="auto"><polygon points="0 0,8 3,0 6" fill="#CA8A04"/></marker>
    <marker id="ah-orange" markerWidth="8" markerHeight="6" refX="7" refY="3" orient="auto"><polygon points="0 0,8 3,0 6" fill="#D97706"/></marker>
    <marker id="ah-gray" markerWidth="8" markerHeight="6" refX="7" refY="3" orient="auto"><polygon points="0 0,8 3,0 6" fill="#94A3B8"/></marker>
  </defs>

  <!-- Background -->
  <rect width="1200" height="820" fill="#F8FAFC" rx="0"/>

  <!-- ── HEADER ── -->
  <rect width="1200" height="62" fill="#0F172A"/>
  <text x="32" y="24" fill="#F1F5F9" font-size="18" font-weight="700">Finance Data Platform</text>
  <text x="32" y="44" fill="#64748B" font-size="11">Azure ADLS Gen2 · Snowflake · dbt 1.7 · Apache Airflow 2.x · Terraform IaC · GitHub Actions CI/CD</text>
  <!-- badges -->
  <rect x="900" y="14" width="88" height="22" rx="11" fill="#022c22" stroke="#059669" stroke-width="1"/>
  <text x="944" y="29" text-anchor="middle" fill="#34d399" font-size="10" font-weight="700">✓ CI PASSING</text>
  <rect x="998" y="14" width="76" height="22" rx="11" fill="#0c1a2e" stroke="#2563EB" stroke-width="1"/>
  <text x="1036" y="29" text-anchor="middle" fill="#60a5fa" font-size="10" font-weight="700">27 MODELS</text>
  <rect x="1084" y="14" width="84" height="22" rx="11" fill="#1c0800" stroke="#ea580c" stroke-width="1"/>
  <text x="1126" y="29" text-anchor="middle" fill="#fb923c" font-size="10" font-weight="700">26 AF TASKS</text>

  <!-- ════════════════════════════════════════════ -->
  <!--  LANE 1 — SOURCE                            -->
  <!-- ════════════════════════════════════════════ -->
  <rect x="16" y="74" width="1168" height="108" rx="10" fill="#F5F3FF" stroke="#C4B5FD" stroke-width="1.2"/>
  <rect x="16" y="68" width="76" height="18" rx="9" fill="#7C3AED"/>
  <text x="54" y="80" text-anchor="middle" fill="#fff" font-size="9" font-weight="700">01 · SOURCE</text>

  <!-- Stripe card -->
  <rect x="30" y="88" width="148" height="82" rx="8" fill="#fff" stroke="#635BFF" stroke-width="1.5"/>
  <rect x="30" y="88" width="148" height="28" rx="8" fill="#635BFF"/>
  <rect x="30" y="104" width="148" height="12" fill="#635BFF"/>
  <text x="104" y="106" text-anchor="middle" fill="#fff" font-size="11" font-weight="700">Stripe API</text>
  <text x="104" y="127" text-anchor="middle" fill="#64748B" font-size="9.5">9 entities · incremental watermark</text>
  <text x="104" y="141" text-anchor="middle" fill="#64748B" font-size="9.5">REST API v3 · full pagination</text>
  <rect x="94" y="156" width="60" height="10" rx="5" fill="#EEF2FF"/>
  <text x="124" y="164" text-anchor="middle" fill="#4338CA" font-size="8" font-weight="700">REST · v3 API</text>

  <!-- Entity pills -->
  <rect x="198" y="92" width="62" height="16" rx="8" fill="#EEF2FF"/>
  <text x="229" y="103" text-anchor="middle" fill="#4338CA" font-size="9" font-weight="600">charges</text>
  <rect x="266" y="92" width="58" height="16" rx="8" fill="#EEF2FF"/>
  <text x="295" y="103" text-anchor="middle" fill="#4338CA" font-size="9" font-weight="600">refunds</text>
  <rect x="330" y="92" width="60" height="16" rx="8" fill="#EEF2FF"/>
  <text x="360" y="103" text-anchor="middle" fill="#4338CA" font-size="9" font-weight="600">disputes</text>
  <rect x="396" y="92" width="56" height="16" rx="8" fill="#EEF2FF"/>
  <text x="424" y="103" text-anchor="middle" fill="#4338CA" font-size="9" font-weight="600">payouts</text>
  <rect x="458" y="92" width="56" height="16" rx="8" fill="#EEF2FF"/>
  <text x="486" y="103" text-anchor="middle" fill="#4338CA" font-size="9" font-weight="600">invoices</text>
  <rect x="198" y="114" width="72" height="16" rx="8" fill="#EEF2FF"/>
  <text x="234" y="125" text-anchor="middle" fill="#4338CA" font-size="9" font-weight="600">customers</text>
  <rect x="276" y="114" width="90" height="16" rx="8" fill="#EEF2FF"/>
  <text x="321" y="125" text-anchor="middle" fill="#4338CA" font-size="9" font-weight="600">balance_txns</text>
  <rect x="372" y="114" width="50" height="16" rx="8" fill="#EEF2FF"/>
  <text x="397" y="125" text-anchor="middle" fill="#4338CA" font-size="9" font-weight="600">prices</text>
  <rect x="428" y="114" width="64" height="16" rx="8" fill="#EEF2FF"/>
  <text x="460" y="125" text-anchor="middle" fill="#4338CA" font-size="9" font-weight="600">products</text>
  <rect x="198" y="136" width="58" height="16" rx="8" fill="#F3E8FF"/>
  <text x="227" y="147" text-anchor="middle" fill="#7C3AED" font-size="9" font-weight="600">fx_rates</text>

  <!-- ════════════════════════════════════════════ -->
  <!--  LANE 2 — INGESTION                         -->
  <!-- ════════════════════════════════════════════ -->
  <rect x="16" y="194" width="1168" height="98" rx="10" fill="#EFF6FF" stroke="#BFDBFE" stroke-width="1.2"/>
  <rect x="16" y="188" width="84" height="18" rx="9" fill="#2563EB"/>
  <text x="58" y="200" text-anchor="middle" fill="#fff" font-size="9" font-weight="700">02 · INGEST</text>

  <!-- Arrow source→ingest -->
  <line x1="104" y1="182" x2="104" y2="192" stroke="#7C3AED" stroke-width="1.5" marker-end="url(#ah-purple)"/>

  <!-- Python card -->
  <rect x="30" y="207" width="148" height="72" rx="8" fill="#fff" stroke="#3776AB" stroke-width="1.5"/>
  <rect x="30" y="207" width="148" height="24" rx="8" fill="#3776AB"/>
  <rect x="30" y="219" width="148" height="12" fill="#3776AB"/>
  <text x="104" y="223" text-anchor="middle" fill="#fff" font-size="11" font-weight="700">Python 3.11</text>
  <text x="104" y="244" text-anchor="middle" fill="#64748B" font-size="9.5">stripe_to_adls.py</text>
  <text x="104" y="257" text-anchor="middle" fill="#64748B" font-size="9.5">Incremental watermark</text>
  <text x="104" y="270" text-anchor="middle" fill="#64748B" font-size="9.5">REST → Parquet · Snappy</text>

  <!-- Arrow + label -->
  <line x1="178" y1="243" x2="290" y2="243" stroke="#2563EB" stroke-width="1.5" marker-end="url(#ah-blue)"/>
  <text x="234" y="237" text-anchor="middle" fill="#2563EB" font-size="9" font-weight="600">Parquet · Snappy</text>
  <text x="234" y="256" text-anchor="middle" fill="#94A3B8" font-size="8.5">partitioned by entity</text>

  <!-- Output detail pills -->
  <rect x="310" y="214" width="100" height="16" rx="8" fill="#DBEAFE"/>
  <text x="360" y="225" text-anchor="middle" fill="#1E40AF" font-size="9" font-weight="600">Parquet + Snappy</text>
  <rect x="416" y="214" width="100" height="16" rx="8" fill="#DBEAFE"/>
  <text x="466" y="225" text-anchor="middle" fill="#1E40AF" font-size="9" font-weight="600">date partitioned</text>
  <rect x="310" y="236" width="120" height="16" rx="8" fill="#EFF6FF"/>
  <text x="370" y="247" text-anchor="middle" fill="#1D4ED8" font-size="9" font-weight="600">incremental watermark</text>
  <rect x="436" y="236" width="104" height="16" rx="8" fill="#EFF6FF"/>
  <text x="488" y="247" text-anchor="middle" fill="#1D4ED8" font-size="9" font-weight="600">9 parallel ingesters</text>

  <!-- ════════════════════════════════════════════ -->
  <!--  LANE 3 — STORAGE                           -->
  <!-- ════════════════════════════════════════════ -->
  <rect x="16" y="304" width="1168" height="98" rx="10" fill="#E0F2FE" stroke="#7DD3FC" stroke-width="1.2"/>
  <rect x="16" y="298" width="84" height="18" rx="9" fill="#0284C7"/>
  <text x="58" y="310" text-anchor="middle" fill="#fff" font-size="9" font-weight="700">03 · STORAGE</text>

  <!-- Arrow ingest→storage -->
  <line x1="104" y1="292" x2="104" y2="302" stroke="#2563EB" stroke-width="1.5" marker-end="url(#ah-blue)"/>

  <!-- ADLS card -->
  <rect x="30" y="316" width="148" height="74" rx="8" fill="#fff" stroke="#0078D4" stroke-width="1.5"/>
  <rect x="30" y="316" width="148" height="24" rx="8" fill="#0078D4"/>
  <rect x="30" y="328" width="148" height="12" fill="#0078D4"/>
  <text x="104" y="332" text-anchor="middle" fill="#fff" font-size="11" font-weight="700">Azure ADLS Gen2</text>
  <text x="104" y="352" text-anchor="middle" fill="#64748B" font-size="9.5">Parquet + Snappy</text>
  <text x="104" y="366" text-anchor="middle" fill="#64748B" font-size="9.5">External Stage → Snowflake</text>
  <text x="104" y="380" text-anchor="middle" fill="#64748B" font-size="9.5">3 environments</text>

  <!-- Arrow + label -->
  <line x1="178" y1="353" x2="290" y2="353" stroke="#0284C7" stroke-width="1.5" marker-end="url(#ah-cyan)"/>
  <text x="234" y="347" text-anchor="middle" fill="#0284C7" font-size="9" font-weight="600">COPY INTO</text>
  <text x="234" y="366" text-anchor="middle" fill="#94A3B8" font-size="8.5">external stage</text>

  <!-- Folder pills -->
  <rect x="310" y="323" width="130" height="16" rx="8" fill="#E0F2FE"/>
  <text x="375" y="334" text-anchor="middle" fill="#0369A1" font-size="9" font-weight="600">landing/stripe/{entity}/</text>
  <rect x="446" y="323" width="104" height="16" rx="8" fill="#E0F2FE"/>
  <text x="498" y="334" text-anchor="middle" fill="#0369A1" font-size="9" font-weight="600">landing/fx/rates/</text>
  <rect x="556" y="323" width="60" height="16" rx="8" fill="#E0F2FE"/>
  <text x="586" y="334" text-anchor="middle" fill="#0369A1" font-size="9" font-weight="600">archive/</text>
  <!-- Env pills -->
  <rect x="310" y="346" width="68" height="16" rx="8" fill="#F0FDFA"/>
  <text x="344" y="357" text-anchor="middle" fill="#0F766E" font-size="9" font-weight="600">dev · LRS</text>
  <rect x="384" y="346" width="72" height="16" rx="8" fill="#EFF6FF"/>
  <text x="420" y="357" text-anchor="middle" fill="#1D4ED8" font-size="9" font-weight="600">test · LRS</text>
  <rect x="462" y="346" width="76" height="16" rx="8" fill="#FEF2F2"/>
  <text x="500" y="357" text-anchor="middle" fill="#B91C1C" font-size="9" font-weight="600">prod · GRS</text>

  <!-- ════════════════════════════════════════════ -->
  <!--  LANE 4 — SNOWFLAKE MEDALLION               -->
  <!-- ════════════════════════════════════════════ -->
  <rect x="16" y="414" width="1168" height="208" rx="10" fill="#F0FDF4" stroke="#86EFAC" stroke-width="1.2"/>
  <rect x="16" y="408" width="148" height="18" rx="9" fill="#059669"/>
  <text x="90" y="420" text-anchor="middle" fill="#fff" font-size="9" font-weight="700">04 · SNOWFLAKE — MEDALLION</text>

  <!-- Arrow storage→warehouse -->
  <line x1="104" y1="402" x2="104" y2="412" stroke="#0284C7" stroke-width="1.5" marker-end="url(#ah-cyan)"/>

  <!-- Snowflake card -->
  <rect x="30" y="426" width="148" height="80" rx="8" fill="#fff" stroke="#29B5E8" stroke-width="1.5"/>
  <rect x="30" y="426" width="148" height="24" rx="8" fill="#29B5E8"/>
  <rect x="30" y="438" width="148" height="12" fill="#29B5E8"/>
  <text x="104" y="442" text-anchor="middle" fill="#fff" font-size="11" font-weight="700">❄ Snowflake</text>
  <text x="104" y="462" text-anchor="middle" fill="#64748B" font-size="9.5">Multi-role RBAC</text>
  <text x="104" y="476" text-anchor="middle" fill="#64748B" font-size="9.5">2 warehouses</text>
  <text x="104" y="490" text-anchor="middle" fill="#64748B" font-size="9.5">5 schemas / env</text>
  <rect x="54" y="500" width="46" height="12" rx="6" fill="#E0F2FE"/>
  <text x="77" y="509" text-anchor="middle" fill="#0369A1" font-size="8" font-weight="700">INGEST WH</text>
  <rect x="106" y="500" width="56" height="12" rx="6" fill="#E0F2FE"/>
  <text x="134" y="509" text-anchor="middle" fill="#0369A1" font-size="8" font-weight="700">TRANSFORM WH</text>

  <!-- Arrow Snowflake → RAW -->
  <line x1="178" y1="466" x2="210" y2="466" stroke="#059669" stroke-width="1.5" marker-end="url(#ah-green)"/>

  <!-- RAW layer -->
  <rect x="210" y="426" width="156" height="180" rx="8" fill="#F8FAFC" stroke="#CBD5E1" stroke-width="1.5"/>
  <rect x="210" y="426" width="156" height="24" rx="8" fill="#334155"/>
  <rect x="210" y="438" width="156" height="12" fill="#334155"/>
  <text x="288" y="442" text-anchor="middle" fill="#E2E8F0" font-size="11" font-weight="700">RAW</text>
  <rect x="222" y="452" width="76" height="14" rx="7" fill="#E2E8F0"/>
  <text x="260" y="462" text-anchor="middle" fill="#475569" font-size="9" font-weight="700">APPEND-ONLY</text>
  <text x="288" y="480" text-anchor="middle" fill="#475569" font-size="9.5" font-weight="600">raw_payload VARIANT</text>
  <text x="288" y="495" text-anchor="middle" fill="#64748B" font-size="9">Full Stripe JSON preserved</text>
  <text x="288" y="510" text-anchor="middle" fill="#64748B" font-size="9">COPY INTO from stage</text>
  <text x="288" y="525" text-anchor="middle" fill="#64748B" font-size="9">Schema-resilient design</text>

  <!-- Arrow RAW → BRONZE -->
  <line x1="366" y1="466" x2="392" y2="466" stroke="#D97706" stroke-width="1.5" marker-end="url(#ah-orange)"/>
  <text x="379" y="460" text-anchor="middle" fill="#D97706" font-size="8" font-weight="600">dbt</text>

  <!-- BRONZE layer -->
  <rect x="392" y="426" width="164" height="180" rx="8" fill="#FFF7ED" stroke="#FED7AA" stroke-width="1.5"/>
  <rect x="392" y="426" width="164" height="24" rx="8" fill="#78350F"/>
  <rect x="392" y="438" width="164" height="12" fill="#78350F"/>
  <text x="474" y="442" text-anchor="middle" fill="#FEF3C7" font-size="11" font-weight="700">BRONZE · 8 models</text>
  <rect x="404" y="452" width="60" height="14" rx="7" fill="#FDE68A"/>
  <text x="434" y="462" text-anchor="middle" fill="#78350F" font-size="9" font-weight="700">INCREMENTAL</text>
  <text x="474" y="480" text-anchor="middle" fill="#92400E" font-size="9.5" font-weight="600">Typed · Flattened · Validated</text>
  <text x="474" y="497" text-anchor="middle" fill="#B45309" font-size="8.5">brz_charges · brz_refunds</text>
  <text x="474" y="511" text-anchor="middle" fill="#B45309" font-size="8.5">brz_disputes · brz_payouts</text>
  <text x="474" y="525" text-anchor="middle" fill="#B45309" font-size="8.5">brz_customers · brz_invoices</text>
  <text x="474" y="539" text-anchor="middle" fill="#B45309" font-size="8.5">brz_balance_txns · brz_fx_rates</text>
  <text x="474" y="556" text-anchor="middle" fill="#D97706" font-size="8">raw_payload:field::TYPE extraction</text>
  <text x="474" y="570" text-anchor="middle" fill="#D97706" font-size="8">Source-of-truth VARIANT columns</text>
  <text x="474" y="584" text-anchor="middle" fill="#D97706" font-size="8">dbt tests: not_null · unique</text>
  <text x="474" y="598" text-anchor="middle" fill="#D97706" font-size="8">accepted_values · freshness</text>

  <!-- Arrow BRONZE → SILVER -->
  <line x1="556" y1="466" x2="580" y2="466" stroke="#475569" stroke-width="1.5" marker-end="url(#ah-gray)"/>
  <text x="568" y="460" text-anchor="middle" fill="#475569" font-size="8" font-weight="600">MERGE</text>

  <!-- SILVER layer -->
  <rect x="580" y="426" width="164" height="180" rx="8" fill="#F1F5F9" stroke="#CBD5E1" stroke-width="1.5"/>
  <rect x="580" y="426" width="164" height="24" rx="8" fill="#334155"/>
  <rect x="580" y="438" width="164" height="12" fill="#334155"/>
  <text x="662" y="442" text-anchor="middle" fill="#E2E8F0" font-size="11" font-weight="700">SILVER · 7 models</text>
  <rect x="592" y="452" width="60" height="14" rx="7" fill="#E2E8F0"/>
  <text x="622" y="462" text-anchor="middle" fill="#334155" font-size="9" font-weight="700">MERGE · DEDUP</text>
  <text x="662" y="480" text-anchor="middle" fill="#334155" font-size="9.5" font-weight="600">Deduped · FX-normalised · USD</text>
  <text x="662" y="497" text-anchor="middle" fill="#475569" font-size="8.5">stg_charges · stg_refunds</text>
  <text x="662" y="511" text-anchor="middle" fill="#475569" font-size="8.5">stg_disputes · stg_payouts</text>
  <text x="662" y="525" text-anchor="middle" fill="#475569" font-size="8.5">stg_invoice_line_items</text>
  <text x="662" y="539" text-anchor="middle" fill="#475569" font-size="8.5">stg_finance_ledger_events</text>
  <text x="662" y="553" text-anchor="middle" fill="#475569" font-size="8.5">stg_customers_history</text>
  <text x="662" y="572" text-anchor="middle" fill="#64748B" font-size="8">QUALIFY dedup guard</text>
  <text x="662" y="585" text-anchor="middle" fill="#64748B" font-size="8">Cents → USD conversion</text>
  <text x="662" y="598" text-anchor="middle" fill="#64748B" font-size="8">Signed amounts convention</text>

  <!-- Arrow SILVER → GOLD -->
  <line x1="744" y1="466" x2="768" y2="466" stroke="#CA8A04" stroke-width="1.5" marker-end="url(#ah-amber)"/>
  <text x="756" y="460" text-anchor="middle" fill="#CA8A04" font-size="8" font-weight="600">MERGE</text>

  <!-- GOLD layer -->
  <rect x="768" y="426" width="200" height="180" rx="8" fill="#FFFBEB" stroke="#FDE68A" stroke-width="1.5"/>
  <rect x="768" y="426" width="200" height="24" rx="8" fill="#854D0E"/>
  <rect x="768" y="438" width="200" height="12" fill="#854D0E"/>
  <text x="868" y="442" text-anchor="middle" fill="#FEF08A" font-size="11" font-weight="700">GOLD · 12 models</text>
  <rect x="780" y="452" width="78" height="14" rx="7" fill="#FEF08A"/>
  <text x="819" y="462" text-anchor="middle" fill="#78350F" font-size="9" font-weight="700">6 FACTS · 6 DIMS</text>
  <text x="868" y="480" text-anchor="middle" fill="#92400E" font-size="9" font-weight="700">Facts</text>
  <text x="868" y="495" text-anchor="middle" fill="#B45309" font-size="8.5">fct_transactions · fct_charges</text>
  <text x="868" y="508" text-anchor="middle" fill="#B45309" font-size="8.5">fct_refunds · fct_disputes</text>
  <text x="868" y="521" text-anchor="middle" fill="#B45309" font-size="8.5">fct_payouts · fct_mrr_movements</text>
  <text x="868" y="540" text-anchor="middle" fill="#92400E" font-size="9" font-weight="700">Dimensions</text>
  <text x="868" y="555" text-anchor="middle" fill="#B45309" font-size="8.5">dim_customers · dim_dates</text>
  <text x="868" y="568" text-anchor="middle" fill="#B45309" font-size="8.5">dim_currencies · dim_plans</text>
  <text x="868" y="581" text-anchor="middle" fill="#B45309" font-size="8.5">dim_payment_category</text>
  <text x="868" y="594" text-anchor="middle" fill="#B45309" font-size="8.5">dim_geography</text>

  <!-- Arrow GOLD → CONSUMERS -->
  <line x1="968" y1="466" x2="994" y2="466" stroke="#CA8A04" stroke-width="2" marker-end="url(#ah-amber)"/>

  <!-- CONSUMERS card -->
  <rect x="994" y="426" width="172" height="180" rx="8" fill="#fff" stroke="#F59E0B" stroke-width="1.5"/>
  <rect x="994" y="426" width="172" height="24" rx="8" fill="#D97706"/>
  <rect x="994" y="438" width="172" height="12" fill="#D97706"/>
  <text x="1080" y="442" text-anchor="middle" fill="#fff" font-size="11" font-weight="700">📊 Consumers</text>
  <rect x="1006" y="452" width="56" height="14" rx="7" fill="#FEF3C7"/>
  <text x="1034" y="462" text-anchor="middle" fill="#92400E" font-size="9" font-weight="700">ANALYTICS</text>
  <text x="1080" y="488" text-anchor="middle" fill="#374151" font-size="10" font-weight="600">Power BI</text>
  <text x="1080" y="506" text-anchor="middle" fill="#64748B" font-size="9">Revenue dashboards</text>
  <text x="1080" y="522" text-anchor="middle" fill="#64748B" font-size="9">MRR tracking</text>
  <text x="1080" y="543" text-anchor="middle" fill="#374151" font-size="10" font-weight="600">Metabase</text>
  <text x="1080" y="560" text-anchor="middle" fill="#64748B" font-size="9">Self-serve analytics</text>
  <text x="1080" y="579" text-anchor="middle" fill="#374151" font-size="10" font-weight="600">SQL Analysts</text>
  <text x="1080" y="596" text-anchor="middle" fill="#64748B" font-size="9">Financial reconciliation</text>

  <!-- ════════════════════════════════════════════ -->
  <!--  ORCHESTRATION BAR                          -->
  <!-- ════════════════════════════════════════════ -->
  <rect x="16" y="634" width="1168" height="120" rx="10" fill="#F8FAFC" stroke="#E2E8F0" stroke-width="1.2"/>
  <text x="32" y="653" fill="#374151" font-size="10" font-weight="700" letter-spacing="1">ORCHESTRATION &amp; INFRASTRUCTURE</text>

  <!-- Airflow card -->
  <rect x="30" y="660" width="274" height="82" rx="8" fill="#fff" stroke="#BAE6FD" stroke-width="1.2"/>
  <rect x="30" y="660" width="274" height="22" rx="8" fill="#0369A1"/>
  <rect x="30" y="670" width="274" height="12" fill="#0369A1"/>
  <text x="167" y="675" text-anchor="middle" fill="#fff" font-size="10" font-weight="700">⚙ Apache Airflow 2.x</text>
  <text x="167" y="695" text-anchor="middle" fill="#374151" font-size="9.5">26-task DAG · 1:30 AM AEST · Docker Compose</text>
  <text x="50" y="711" fill="#017CEE" font-size="8.5" font-weight="600">Ingest ×9</text>
  <text x="105" y="711" fill="#017CEE" font-size="8.5" font-weight="600">COPY INTO ×8</text>
  <text x="178" y="711" fill="#017CEE" font-size="8.5" font-weight="600">dbt Run/Test ×6</text>
  <text x="255" y="711" fill="#017CEE" font-size="8.5" font-weight="600">Reconcile</text>
  <text x="167" y="728" text-anchor="middle" fill="#64748B" font-size="8.5">Watermarks · Success notification</text>
  <text x="167" y="738" text-anchor="middle" fill="#64748B" font-size="8.5">finance_snowflake_conn · LocalExecutor</text>

  <!-- Terraform card -->
  <rect x="316" y="660" width="274" height="82" rx="8" fill="#fff" stroke="#DDD6FE" stroke-width="1.2"/>
  <rect x="316" y="660" width="274" height="22" rx="8" fill="#4C1D95"/>
  <rect x="316" y="670" width="274" height="12" fill="#4C1D95"/>
  <text x="453" y="675" text-anchor="middle" fill="#fff" font-size="10" font-weight="700">🏗 Terraform IaC</text>
  <text x="453" y="695" text-anchor="middle" fill="#374151" font-size="9.5">3 environments · Azure Blob remote state</text>
  <text x="336" y="711" fill="#7C3AED" font-size="8.5" font-weight="600">dev: X-Small · LRS</text>
  <text x="436" y="711" fill="#7C3AED" font-size="8.5" font-weight="600">test: Small · LRS</text>
  <text x="530" y="711" fill="#7C3AED" font-size="8.5" font-weight="600">prod: Medium · GRS</text>
  <text x="453" y="728" text-anchor="middle" fill="#64748B" font-size="8.5">Snowflake module · Azure module</text>
  <text x="453" y="738" text-anchor="middle" fill="#64748B" font-size="8.5">DB · Schemas · Roles · Warehouses · Storage</text>

  <!-- GitHub Actions card -->
  <rect x="602" y="660" width="274" height="82" rx="8" fill="#fff" stroke="#D1D5DB" stroke-width="1.2"/>
  <rect x="602" y="660" width="274" height="22" rx="8" fill="#24292F"/>
  <rect x="602" y="670" width="274" height="12" fill="#24292F"/>
  <text x="739" y="675" text-anchor="middle" fill="#fff" font-size="10" font-weight="700">🔄 GitHub Actions CI/CD</text>
  <text x="739" y="695" text-anchor="middle" fill="#374151" font-size="9.5">4 workflows · auto-triggered on PR &amp; push</text>
  <text x="620" y="711" fill="#24292F" font-size="8.5" font-weight="600">dbt-ci</text>
  <text x="656" y="711" fill="#24292F" font-size="8.5" font-weight="600">terraform-ci</text>
  <text x="722" y="711" fill="#24292F" font-size="8.5" font-weight="600">python-lint</text>
  <text x="793" y="711" fill="#24292F" font-size="8.5" font-weight="600">dbt-docs</text>
  <text x="739" y="728" text-anchor="middle" fill="#64748B" font-size="8.5">Compile · Validate · flake8 · GitHub Pages</text>
  <text x="739" y="738" text-anchor="middle" fill="#64748B" font-size="8.5">Required secrets: SNOWFLAKE_* · AZURE_*</text>

  <!-- Snowflake RBAC card -->
  <rect x="888" y="660" width="274" height="82" rx="8" fill="#fff" stroke="#BAE6FD" stroke-width="1.2"/>
  <rect x="888" y="660" width="274" height="22" rx="8" fill="#0369A1"/>
  <rect x="888" y="670" width="274" height="12" fill="#0369A1"/>
  <text x="1025" y="675" text-anchor="middle" fill="#fff" font-size="10" font-weight="700">❄ Snowflake RBAC</text>
  <text x="1025" y="695" text-anchor="middle" fill="#374151" font-size="9.5">3 roles · 2 service accounts · 5 schemas</text>
  <text x="900" y="711" fill="#0369A1" font-size="8.5" font-weight="600">TRANSFORMER</text>
  <text x="975" y="711" fill="#0369A1" font-size="8.5" font-weight="600">LOADER</text>
  <text x="1030" y="711" fill="#0369A1" font-size="8.5" font-weight="600">ANALYST</text>
  <text x="1025" y="728" text-anchor="middle" fill="#64748B" font-size="8.5">RAW · BRONZE · SILVER · GOLD · AUDIT</text>
  <text x="1025" y="738" text-anchor="middle" fill="#64748B" font-size="8.5">FINANCE_DBT_USER · FINANCE_AIRFLOW_USER</text>

  <!-- ════════════════════════════════════════════ -->
  <!--  FOOTER / LEGEND                            -->
  <!-- ════════════════════════════════════════════ -->
  <rect x="16" y="764" width="1168" height="40" rx="8" fill="#F1F5F9"/>
  <text x="32" y="781" fill="#374151" font-size="10" font-weight="700">LEGEND</text>
  <line x1="88" y1="778" x2="116" y2="778" stroke="#475569" stroke-width="1.5" marker-end="url(#ah)"/>
  <text x="122" y="782" fill="#64748B" font-size="9.5">Data flow</text>
  <line x1="178" y1="778" x2="206" y2="778" stroke="#94A3B8" stroke-width="1.5" stroke-dasharray="4,3"/>
  <text x="212" y="782" fill="#64748B" font-size="9.5">Orchestration</text>
  <text x="310" y="782" fill="#64748B" font-size="9.5">|</text>
  <rect x="320" y="771" width="58" height="14" rx="7" fill="#FDE68A"/>
  <text x="349" y="781" text-anchor="middle" fill="#78350F" font-size="9" font-weight="700">8 Bronze</text>
  <rect x="384" y="771" width="56" height="14" rx="7" fill="#E2E8F0"/>
  <text x="412" y="781" text-anchor="middle" fill="#334155" font-size="9" font-weight="700">7 Silver</text>
  <rect x="446" y="771" width="56" height="14" rx="7" fill="#FEF08A"/>
  <text x="474" y="781" text-anchor="middle" fill="#713F12" font-size="9" font-weight="700">12 Gold</text>
  <text x="508" y="781" fill="#64748B" font-size="9.5">= 27 dbt models total</text>
  <text x="660" y="782" fill="#64748B" font-size="9.5">|</text>
  <text x="672" y="782" fill="#64748B" font-size="9.5">Schedule: 1:30 AM AEST (15:30 UTC) daily</text>
  <text x="900" y="782" fill="#64748B" font-size="9.5">|</text>
  <text x="912" y="782" fill="#64748B" font-size="9.5">github.com/reddymotukugit/finance-data-platform</text>

  <!-- dbt watermark in warehouse lane -->
  <rect x="1100" y="430" width="68" height="20" rx="6" fill="#FF694A22" stroke="#FF694A" stroke-width="1"/>
  <text x="1134" y="444" text-anchor="middle" fill="#FF694A" font-size="9" font-weight="700">dbt 1.7</text>
</svg>
