<svg viewBox="0 0 1200 627" xmlns="http://www.w3.org/2000/svg" font-family="'Segoe UI',Arial,sans-serif">
  <defs>
    <linearGradient id="bg" x1="0%" y1="0%" x2="100%" y2="100%">
      <stop offset="0%" style="stop-color:#0F172A"/>
      <stop offset="60%" style="stop-color:#0F1F3D"/>
      <stop offset="100%" style="stop-color:#0A0F1E"/>
    </linearGradient>
    <linearGradient id="gold-grd" x1="0%" y1="0%" x2="100%" y2="0%">
      <stop offset="0%" style="stop-color:#F59E0B"/>
      <stop offset="100%" style="stop-color:#EAB308"/>
    </linearGradient>
    <marker id="lah" markerWidth="8" markerHeight="6" refX="7" refY="3" orient="auto">
      <polygon points="0 0,8 3,0 6" fill="#475569"/>
    </marker>
    <marker id="lah-w" markerWidth="8" markerHeight="6" refX="7" refY="3" orient="auto">
      <polygon points="0 0,8 3,0 6" fill="#94A3B8"/>
    </marker>
    <marker id="lah-gold" markerWidth="8" markerHeight="6" refX="7" refY="3" orient="auto">
      <polygon points="0 0,8 3,0 6" fill="#EAB308"/>
    </marker>
  </defs>

  <!-- Background -->
  <rect width="1200" height="627" fill="url(#bg)"/>

  <!-- Subtle grid lines -->
  <line x1="0" y1="0" x2="1200" y2="0" stroke="#1E293B" stroke-width="1"/>
  <line x1="0" y1="627" x2="1200" y2="627" stroke="#1E293B" stroke-width="1"/>
  <line x1="600" y1="0" x2="600" y2="627" stroke="#1E293B" stroke-width="0.5" opacity="0.3"/>
  <line x1="300" y1="0" x2="300" y2="627" stroke="#1E293B" stroke-width="0.5" opacity="0.2"/>
  <line x1="900" y1="0" x2="900" y2="627" stroke="#1E293B" stroke-width="0.5" opacity="0.2"/>
  <line x1="0" y1="210" x2="1200" y2="210" stroke="#1E293B" stroke-width="0.5" opacity="0.2"/>
  <line x1="0" y1="420" x2="1200" y2="420" stroke="#1E293B" stroke-width="0.5" opacity="0.2"/>

  <!-- Accent glow blob top-left -->
  <ellipse cx="80" cy="80" rx="200" ry="120" fill="#635BFF" opacity="0.06"/>
  <!-- Accent glow blob bottom-right -->
  <ellipse cx="1120" cy="550" rx="200" ry="120" fill="#29B5E8" opacity="0.07"/>

  <!-- ══ TOP — TITLE SECTION ══ -->
  <!-- Gold accent bar -->
  <rect x="60" y="48" width="5" height="60" rx="2" fill="url(#gold-grd)"/>

  <text x="80" y="78" fill="#F1F5F9" font-size="38" font-weight="800" letter-spacing="-0.5">Finance Data Platform</text>
  <text x="80" y="104" fill="#94A3B8" font-size="16" font-weight="400" letter-spacing="0.3">Production-grade financial pipeline built on Azure · Snowflake · dbt · Airflow</text>

  <!-- CI badges row -->
  <rect x="80" y="118" width="112" height="24" rx="12" fill="#022c22" stroke="#059669" stroke-width="1"/>
  <text x="136" y="134" text-anchor="middle" fill="#34d399" font-size="11" font-weight="700">✓ CI PASSING</text>

  <rect x="202" y="118" width="104" height="24" rx="12" fill="#0c1a2e" stroke="#2563EB" stroke-width="1"/>
  <text x="254" y="134" text-anchor="middle" fill="#60a5fa" font-size="11" font-weight="700">27 dbt Models</text>

  <rect x="316" y="118" width="112" height="24" rx="12" fill="#1c0800" stroke="#ea580c" stroke-width="1"/>
  <text x="372" y="134" text-anchor="middle" fill="#fb923c" font-size="11" font-weight="700">26 AF Tasks</text>

  <rect x="438" y="118" width="110" height="24" rx="12" fill="#0f1a0a" stroke="#65a30d" stroke-width="1"/>
  <text x="493" y="134" text-anchor="middle" fill="#a3e635" font-size="11" font-weight="700">9 Stripe Entities</text>

  <!-- GitHub link top-right -->
  <text x="1140" y="72" text-anchor="end" fill="#475569" font-size="11">github.com/reddymotukugit/</text>
  <text x="1140" y="88" text-anchor="end" fill="#60a5fa" font-size="11" font-weight="600">finance-data-platform</text>

  <!-- ══ MAIN ARCHITECTURE FLOW ══ -->
  <!-- Horizontal pipeline: left=158 to right=~1140, y=310 center -->

  <!-- Step 1: Stripe -->
  <rect x="60" y="178" width="148" height="158" rx="10" fill="#1A1035" stroke="#635BFF" stroke-width="2"/>
  <rect x="60" y="178" width="148" height="36" rx="10" fill="#635BFF"/>
  <rect x="60" y="202" width="148" height="12" fill="#635BFF"/>
  <text x="134" y="202" text-anchor="middle" fill="#fff" font-size="13" font-weight="700">Stripe API</text>
  <text x="134" y="228" text-anchor="middle" fill="#A5B4FC" font-size="10.5">9 entities</text>
  <text x="134" y="244" text-anchor="middle" fill="#A5B4FC" font-size="10.5">charges · refunds</text>
  <text x="134" y="260" text-anchor="middle" fill="#A5B4FC" font-size="10.5">disputes · payouts</text>
  <text x="134" y="276" text-anchor="middle" fill="#A5B4FC" font-size="10.5">invoices · customers</text>
  <text x="134" y="292" text-anchor="middle" fill="#A5B4FC" font-size="10.5">balance_txns</text>
  <text x="134" y="308" text-anchor="middle" fill="#A5B4FC" font-size="10.5">prices · products</text>
  <text x="134" y="326" text-anchor="middle" fill="#818CF8" font-size="9.5" font-style="italic">incremental watermark</text>

  <!-- Arrow 1→2 -->
  <line x1="208" y1="257" x2="240" y2="257" stroke="#635BFF" stroke-width="2" marker-end="url(#lah-w)"/>
  <text x="224" y="249" text-anchor="middle" fill="#818CF8" font-size="9" font-weight="600">REST</text>

  <!-- Step 2: Python -->
  <rect x="240" y="200" width="140" height="114" rx="10" fill="#12223A" stroke="#3776AB" stroke-width="2"/>
  <rect x="240" y="200" width="140" height="32" rx="10" fill="#3776AB"/>
  <rect x="240" y="220" width="140" height="12" fill="#3776AB"/>
  <text x="310" y="221" text-anchor="middle" fill="#fff" font-size="13" font-weight="700">Python 3.11</text>
  <text x="310" y="247" text-anchor="middle" fill="#93C5FD" font-size="10">stripe_to_adls.py</text>
  <text x="310" y="263" text-anchor="middle" fill="#93C5FD" font-size="10">REST → Parquet</text>
  <text x="310" y="279" text-anchor="middle" fill="#93C5FD" font-size="10">Snappy compressed</text>
  <text x="310" y="300" text-anchor="middle" fill="#60A5FA" font-size="9" font-style="italic">9 parallel ingesters</text>

  <!-- Arrow 2→3 -->
  <line x1="380" y1="257" x2="412" y2="257" stroke="#3776AB" stroke-width="2" marker-end="url(#lah-w)"/>
  <text x="396" y="249" text-anchor="middle" fill="#60A5FA" font-size="9" font-weight="600">Parquet</text>

  <!-- Step 3: ADLS -->
  <rect x="412" y="200" width="148" height="114" rx="10" fill="#0B1929" stroke="#0078D4" stroke-width="2"/>
  <rect x="412" y="200" width="148" height="32" rx="10" fill="#0078D4"/>
  <rect x="412" y="220" width="148" height="12" fill="#0078D4"/>
  <text x="486" y="221" text-anchor="middle" fill="#fff" font-size="12" font-weight="700">Azure ADLS Gen2</text>
  <text x="486" y="247" text-anchor="middle" fill="#7DD3FC" font-size="10">landing/stripe/{entity}/</text>
  <text x="486" y="263" text-anchor="middle" fill="#7DD3FC" font-size="10">landing/fx/rates/</text>
  <text x="486" y="279" text-anchor="middle" fill="#7DD3FC" font-size="10">External Stage</text>
  <text x="486" y="300" text-anchor="middle" fill="#38BDF8" font-size="9" font-style="italic">dev · test · prod</text>

  <!-- Arrow 3→4 -->
  <line x1="560" y1="257" x2="590" y2="257" stroke="#0078D4" stroke-width="2" marker-end="url(#lah-w)"/>
  <text x="575" y="249" text-anchor="middle" fill="#38BDF8" font-size="9" font-weight="600">COPY</text>

  <!-- Step 4: Snowflake layers (stacked horizontally inside one zone) -->
  <!-- RAW -->
  <rect x="590" y="178" width="96" height="158" rx="0" fill="#1A2535" stroke="#334155" stroke-width="1.5"/>
  <rect x="590" y="178" width="96" height="28" rx="0" fill="#334155"/>
  <text x="638" y="197" text-anchor="middle" fill="#CBD5E1" font-size="11" font-weight="700">RAW</text>
  <text x="638" y="222" text-anchor="middle" fill="#64748B" font-size="9">VARIANT</text>
  <text x="638" y="238" text-anchor="middle" fill="#64748B" font-size="9">JSON payload</text>
  <text x="638" y="254" text-anchor="middle" fill="#64748B" font-size="9">COPY INTO</text>
  <text x="638" y="270" text-anchor="middle" fill="#64748B" font-size="9">append-only</text>
  <!-- Arrow RAW→BRZ -->
  <line x1="686" y1="257" x2="700" y2="257" stroke="#78350F" stroke-width="1.5" marker-end="url(#lah)"/>

  <!-- BRONZE -->
  <rect x="686" y="178" width="96" height="158" rx="0" fill="#1C1208" stroke="#92400E" stroke-width="1.5"/>
  <rect x="686" y="178" width="96" height="28" rx="0" fill="#78350F"/>
  <text x="734" y="197" text-anchor="middle" fill="#FEF3C7" font-size="11" font-weight="700">BRONZE</text>
  <text x="734" y="218" text-anchor="middle" fill="#FCD34D" font-size="9" font-weight="600">8 models</text>
  <text x="734" y="236" text-anchor="middle" fill="#D97706" font-size="9">Typed</text>
  <text x="734" y="252" text-anchor="middle" fill="#D97706" font-size="9">Flattened</text>
  <text x="734" y="268" text-anchor="middle" fill="#D97706" font-size="9">Validated</text>
  <text x="734" y="288" text-anchor="middle" fill="#B45309" font-size="8.5">brz_ prefix</text>
  <text x="734" y="304" text-anchor="middle" fill="#B45309" font-size="8.5">dbt tests</text>
  <!-- Arrow BRZ→SLV -->
  <line x1="782" y1="257" x2="796" y2="257" stroke="#475569" stroke-width="1.5" marker-end="url(#lah)"/>

  <!-- SILVER -->
  <rect x="782" y="178" width="96" height="158" rx="0" fill="#0F172A" stroke="#475569" stroke-width="1.5"/>
  <rect x="782" y="178" width="96" height="28" rx="0" fill="#334155"/>
  <text x="830" y="197" text-anchor="middle" fill="#E2E8F0" font-size="11" font-weight="700">SILVER</text>
  <text x="830" y="218" text-anchor="middle" fill="#94A3B8" font-size="9" font-weight="600">7 models</text>
  <text x="830" y="236" text-anchor="middle" fill="#64748B" font-size="9">Deduped</text>
  <text x="830" y="252" text-anchor="middle" fill="#64748B" font-size="9">FX → USD</text>
  <text x="830" y="268" text-anchor="middle" fill="#64748B" font-size="9">MERGE</text>
  <text x="830" y="288" text-anchor="middle" fill="#475569" font-size="8.5">stg_ prefix</text>
  <text x="830" y="304" text-anchor="middle" fill="#475569" font-size="8.5">QUALIFY dedup</text>
  <!-- Arrow SLV→GLD -->
  <line x1="878" y1="257" x2="892" y2="257" stroke="#CA8A04" stroke-width="1.5" marker-end="url(#lah-gold)"/>

  <!-- GOLD -->
  <rect x="878" y="178" width="96" height="158" rx="0" fill="#1A1100" stroke="#CA8A04" stroke-width="2"/>
  <rect x="878" y="178" width="96" height="28" rx="0" fill="#854D0E"/>
  <text x="926" y="197" text-anchor="middle" fill="#FEF08A" font-size="11" font-weight="700">GOLD</text>
  <text x="926" y="218" text-anchor="middle" fill="#FDE68A" font-size="9" font-weight="600">12 models</text>
  <text x="926" y="236" text-anchor="middle" fill="#B45309" font-size="9">6 Facts</text>
  <text x="926" y="252" text-anchor="middle" fill="#B45309" font-size="9">6 Dims</text>
  <text x="926" y="268" text-anchor="middle" fill="#B45309" font-size="9">MRR</text>
  <text x="926" y="288" text-anchor="middle" fill="#D97706" font-size="8.5">fct_ · dim_</text>
  <text x="926" y="304" text-anchor="middle" fill="#D97706" font-size="8.5">analytics-ready</text>

  <!-- Snowflake bracket label -->
  <rect x="590" y="344" width="384" height="18" rx="4" fill="#1E293B"/>
  <text x="782" y="357" text-anchor="middle" fill="#94A3B8" font-size="10" font-weight="600">❄ Snowflake — Medallion Architecture (RAW → Bronze → Silver → Gold)</text>

  <!-- Arrow GOLD → Consumers -->
  <line x1="974" y1="257" x2="1008" y2="257" stroke="#CA8A04" stroke-width="2" marker-end="url(#lah-gold)"/>

  <!-- Step 5: Consumers -->
  <rect x="1008" y="200" width="152" height="114" rx="10" fill="#052E16" stroke="#16A34A" stroke-width="2"/>
  <rect x="1008" y="200" width="152" height="32" rx="10" fill="#166534"/>
  <rect x="1008" y="220" width="152" height="12" fill="#166534"/>
  <text x="1084" y="221" text-anchor="middle" fill="#BBF7D0" font-size="13" font-weight="700">📊 Consumers</text>
  <text x="1084" y="249" text-anchor="middle" fill="#86EFAC" font-size="11">Power BI</text>
  <text x="1084" y="267" text-anchor="middle" fill="#86EFAC" font-size="11">Metabase</text>
  <text x="1084" y="285" text-anchor="middle" fill="#86EFAC" font-size="11">SQL Analysts</text>
  <text x="1084" y="305" text-anchor="middle" fill="#4ADE80" font-size="9" font-style="italic">Revenue · MRR · Reconcile</text>

  <!-- ══ STATS ROW ══ -->
  <rect x="60" y="380" width="244" height="96" rx="10" fill="#0F1F3D" stroke="#1E3A8A" stroke-width="1.5"/>
  <text x="182" y="408" text-anchor="middle" fill="#93C5FD" font-size="11" font-weight="700" letter-spacing="0.5">PIPELINE SCALE</text>
  <text x="100" y="435" text-anchor="middle" fill="#60A5FA" font-size="28" font-weight="800">9</text>
  <text x="100" y="452" text-anchor="middle" fill="#64748B" font-size="10">Stripe entities</text>
  <text x="182" y="435" text-anchor="middle" fill="#60A5FA" font-size="28" font-weight="800">27</text>
  <text x="182" y="452" text-anchor="middle" fill="#64748B" font-size="10">dbt models</text>
  <text x="264" y="435" text-anchor="middle" fill="#60A5FA" font-size="28" font-weight="800">26</text>
  <text x="264" y="452" text-anchor="middle" fill="#64748B" font-size="10">Airflow tasks</text>
  <text x="182" y="468" text-anchor="middle" fill="#475569" font-size="9">Daily at 1:30 AM AEST · Incremental</text>

  <!-- TECH STACK ROW -->
  <rect x="320" y="380" width="520" height="96" rx="10" fill="#0F172A" stroke="#1E293B" stroke-width="1.5"/>
  <text x="580" y="405" text-anchor="middle" fill="#94A3B8" font-size="11" font-weight="700" letter-spacing="0.5">TECH STACK</text>

  <rect x="334" y="415" width="90" height="28" rx="6" fill="#635BFF22" stroke="#635BFF" stroke-width="1"/>
  <text x="379" y="433" text-anchor="middle" fill="#A5B4FC" font-size="10" font-weight="600">Stripe API</text>

  <rect x="432" y="415" width="78" height="28" rx="6" fill="#3776AB22" stroke="#3776AB" stroke-width="1"/>
  <text x="471" y="433" text-anchor="middle" fill="#93C5FD" font-size="10" font-weight="600">Python 3.11</text>

  <rect x="518" y="415" width="100" height="28" rx="6" fill="#0078D422" stroke="#0078D4" stroke-width="1"/>
  <text x="568" y="433" text-anchor="middle" fill="#7DD3FC" font-size="10" font-weight="600">Azure ADLS Gen2</text>

  <rect x="626" y="415" width="86" height="28" rx="6" fill="#29B5E822" stroke="#29B5E8" stroke-width="1"/>
  <text x="669" y="433" text-anchor="middle" fill="#7DD3FC" font-size="10" font-weight="600">❄ Snowflake</text>

  <rect x="334" y="450" width="60" height="22" rx="6" fill="#FF694A22" stroke="#FF694A" stroke-width="1"/>
  <text x="364" y="465" text-anchor="middle" fill="#FCA5A5" font-size="10" font-weight="600">dbt 1.7</text>

  <rect x="402" y="450" width="100" height="22" rx="6" fill="#017CEE22" stroke="#017CEE" stroke-width="1"/>
  <text x="452" y="465" text-anchor="middle" fill="#93C5FD" font-size="10" font-weight="600">Apache Airflow</text>

  <rect x="510" y="450" width="80" height="22" rx="6" fill="#7B42BC22" stroke="#7B42BC" stroke-width="1"/>
  <text x="550" y="465" text-anchor="middle" fill="#C4B5FD" font-size="10" font-weight="600">Terraform</text>

  <rect x="598" y="450" width="106" height="22" rx="6" fill="#24292F44" stroke="#475569" stroke-width="1"/>
  <text x="651" y="465" text-anchor="middle" fill="#CBD5E1" font-size="10" font-weight="600">GitHub Actions</text>

  <!-- MEDALLION KEY -->
  <rect x="856" y="380" width="304" height="96" rx="10" fill="#0F172A" stroke="#1E293B" stroke-width="1.5"/>
  <text x="1008" y="405" text-anchor="middle" fill="#94A3B8" font-size="11" font-weight="700" letter-spacing="0.5">MEDALLION LAYERS</text>
  <rect x="872" y="415" width="64" height="22" rx="6" fill="#FDE68A" stroke="#78350F" stroke-width="1"/>
  <text x="904" y="430" text-anchor="middle" fill="#78350F" font-size="10" font-weight="700">Bronze ×8</text>
  <rect x="944" y="415" width="64" height="22" rx="6" fill="#E2E8F0" stroke="#475569" stroke-width="1"/>
  <text x="976" y="430" text-anchor="middle" fill="#334155" font-size="10" font-weight="700">Silver ×7</text>
  <rect x="1016" y="415" width="62" height="22" rx="6" fill="#FEF08A" stroke="#CA8A04" stroke-width="1"/>
  <text x="1047" y="430" text-anchor="middle" fill="#713F12" font-size="10" font-weight="700">Gold ×12</text>
  <text x="1008" y="456" text-anchor="middle" fill="#64748B" font-size="9.5">Typed · Deduped · Analytics-ready</text>
  <text x="1008" y="471" text-anchor="middle" fill="#64748B" font-size="9.5">Incremental MERGE · QUALIFY dedup</text>

  <!-- ══ BOTTOM FOOTER ══ -->
  <rect x="0" y="544" width="1200" height="83" fill="#0A0F1E" opacity="0.95"/>
  <line x1="0" y1="544" x2="1200" y2="544" stroke="#1E293B" stroke-width="1"/>

  <text x="60" y="573" fill="#64748B" font-size="11">Built by</text>
  <text x="112" y="573" fill="#F1F5F9" font-size="11" font-weight="700">Reddy Motuku</text>
  <text x="60" y="594" fill="#475569" font-size="10.5">Data Engineer · Azure · Snowflake · dbt · Airflow · Terraform</text>

  <!-- Divider -->
  <line x1="370" y1="556" x2="370" y2="618" stroke="#1E293B" stroke-width="1"/>

  <text x="400" y="572" fill="#64748B" font-size="10">🔗 Live dbt Docs</text>
  <text x="400" y="591" fill="#60A5FA" font-size="10">reddymotukugit.github.io/finance-data-platform</text>
  <text x="400" y="610" fill="#60A5FA" font-size="10">github.com/reddymotukugit/finance-data-platform</text>

  <!-- Divider -->
  <line x1="700" y1="556" x2="700" y2="618" stroke="#1E293B" stroke-width="1"/>

  <text x="730" y="572" fill="#64748B" font-size="10">CI/CD Status</text>
  <rect x="730" y="580" width="96" height="16" rx="8" fill="#022c22" stroke="#059669" stroke-width="1"/>
  <text x="778" y="592" text-anchor="middle" fill="#34d399" font-size="9" font-weight="700">✓ dbt CI</text>
  <rect x="834" y="580" width="112" height="16" rx="8" fill="#022c22" stroke="#059669" stroke-width="1"/>
  <text x="890" y="592" text-anchor="middle" fill="#34d399" font-size="9" font-weight="700">✓ Terraform CI</text>
  <rect x="954" y="580" width="100" height="16" rx="8" fill="#022c22" stroke="#059669" stroke-width="1"/>
  <text x="1004" y="592" text-anchor="middle" fill="#34d399" font-size="9" font-weight="700">✓ Python Lint</text>
  <rect x="1062" y="580" width="100" height="16" rx="8" fill="#022c22" stroke="#059669" stroke-width="1"/>
  <text x="1112" y="592" text-anchor="middle" fill="#34d399" font-size="9" font-weight="700">✓ dbt Docs</text>

  <text x="730" y="614" fill="#475569" font-size="9.5">#DataEngineering  #Azure  #Snowflake  #dbt  #Airflow  #Terraform  #DataPipeline</text>
</svg>
